<svg xmlns="http://www.w3.org/2000/svg" xmlns:xlink="http://www.w3.org/1999/xlink" version="1.1" style="enable-background:new 0 0 21 28;" xml:space="preserve" width="40" height="40"><rect id="backgroundrect" width="100%" height="100%" x="0" y="0" fill="none" stroke="none" class=""/><style type="text/css">.st0{fill:#15CA8A;}.st1{fill:url(#SVGID_1_);}</style><linearGradient id="SVGID_1_" gradientUnits="userSpaceOnUse" x1="0" y1="396.2065124511719" x2="0" y2="397.2065124511719" gradientTransform="matrix(19.7476 0 0 -27.6217 5512.3066 10971.9492)"><stop offset="0" style="stop-color:#942291"/><stop offset="1" style="stop-color:#FF386E"/></linearGradient><g class="currentLayer"><title>Layer 1</title><path class="st1" d="m31.471558,19.008622c-0.35286,1.058587 -1.411446,1.999559 -2.117174,1.881937l-6.93965,-2.352419l0,5.29295l8.586341,8.586341c0.705727,0.705727 0.588105,2.117182 -0.35286,3.058146s-2.234804,1.058595 -3.058154,0.352868l-7.645369,-7.645377l-7.410132,7.527754c-0.705727,0.705727 -2.117182,0.588105 -3.058154,-0.352868c-0.940964,-0.940964 -1.058587,-2.234796 -0.35286,-3.058146l8.703964,-8.703964l0,-5.645818l-7.174887,2.470049c-0.588113,0.235237 -1.6467,-0.82335 -2.117182,-1.881937c-0.352868,-1.058595 -0.117623,-2.117182 0.470482,-2.234804l9.880173,-3.293391c0.117623,0 0.235245,0 0.352868,0c0.117623,0 0.117623,0 0.235237,0c-2.352419,-0.352868 -4.116733,-2.234804 -4.116733,-4.587223c0,-2.587672 2.117174,-4.704845 4.704837,-4.704845c2.587672,0 4.704845,2.117174 4.704845,4.704845c0,2.352419 -1.764314,4.351978 -4.116733,4.704845c0.35286,0.117614 0.705727,0.35286 0.940964,0.470482l9.174454,3.175768c0.823342,0.235245 1.058587,1.176209 0.705719,2.234804z" id="svg_1"/></g></svg>